<svg id="Layer_1" data-name="Layer 1" xmlns="http://www.w3.org/2000/svg" viewBox="0 0 263.91 156.78"><defs><style>.cls-1,.cls-8,.cls-9{fill:#283981;}.cls-2{fill:#283a82;}.cls-3{fill:#9ad1a2;}.cls-4{fill:#44a4c1;}.cls-5{fill:#49a7c3;}.cls-6{fill:#99a2c6;}.cls-7{fill:#717db0;}.cls-8{font-size:37.39px;}.cls-8,.cls-9{font-family:ArialMT, Arial;}.cls-9{font-size:22.67px;letter-spacing:0.04em;}.cls-10{fill:#fff;stroke:#283a82;stroke-miterlimit:10;}</style></defs><path class="cls-1" d="M262.33,331.1c-.51,5.17-1,10.27-1.52,15.36-3.86-2.29-7.51-4.89-11.51-6.76-13-6.08-26.13-7-39,.34-9.27,5.31-14.87,13.66-17.93,23.67-3.41,11.16-4.25,22.51-.5,33.79,3.83,11.5,13.45,18.64,25.57,19.31a45.3,45.3,0,0,0,21-3.53c.75-.32,1.79-1.07,1.86-1.71.8-7.4,1.45-14.83,2.16-22.45h-21.5c.41-4.46.8-8.7,1.2-13.1h35.94c-.57,6-1.15,11.9-1.7,17.82-.77,8.27-1.56,16.55-2.23,24.83a3.2,3.2,0,0,1-1.94,3c-15.24,7.92-31.27,11-48.05,6.57-15.22-4-24.56-14.43-27.87-29.53-4.55-20.75-1-40.16,12.34-57.13,9-11.45,21.07-17.78,35.52-19.56A54.56,54.56,0,0,1,260,329.55C260.8,330,261.54,330.56,262.33,331.1Z" transform="translate(-173.39 -321.32)"/><path class="cls-2" d="M435.56,340.59c-6.39-1.78-12.52-4-18.84-5.14-15.32-2.83-27.24,3.11-35.3,16-9.35,14.9-11.78,31.1-5.75,47.92,3.95,11,13.83,17.4,25.62,17.54,8.86.1,17.08-2.25,24.95-6.08.52-.25,1-.54,1.55-.79a3.34,3.34,0,0,1,.8,0c-.39,4.29-.74,8.55-1.22,12.79a2.15,2.15,0,0,1-1.14,1.45c-16.09,7-32.35,9.23-48.44.31-10.54-5.85-16.46-15.49-18.7-27-4.3-22.05.23-42.19,15.35-59.21,10.32-11.61,23.63-17.28,39.24-16.67a61.35,61.35,0,0,1,21.08,4.7,2.48,2.48,0,0,1,1.81,3C436.17,333.2,435.87,337.09,435.56,340.59Z" transform="translate(-173.39 -321.32)"/><path class="cls-3" d="M263.47,429.72c2.69-4.6,4.77-8.69,7.16-12.78l3.19-6,7.65.6-3.32,5.95H341c0,4.05,0,7.58-.06,11.11v1.25s-2.22.07-2.72.07l-71.93,0C265.66,429.86,265,429.8,263.47,429.72Z" transform="translate(-173.39 -321.32)"/><path class="cls-2" d="M355.06,321.32c-.2,4.19-.4,8.3-.61,12.64H296.27l.49,3.67h-9.05L286,321.32Z" transform="translate(-173.39 -321.32)"/><path class="cls-2" d="M301.69,369.39l-10.1,1.12-2.24.05.19-.21c-.28-5.43-.56-10.78-.85-16.28h12.15c1.15,4.86,2.31,9.73,3.52,14.81l-1.25.24Z" transform="translate(-173.39 -321.32)"/><path class="cls-4" d="M302,380.16c-2.46,4-6,9.18-8.55,13.15a2.54,2.54,0,0,1-1.73,1.08c-3.48.1-7,.05-10.85.05,1.71-3.74,3.31-7.17,4.84-10.63,0,0,2.15-4.76,2.1-4.88S298.73,379.72,302,380.16Z" transform="translate(-173.39 -321.32)"/><path class="cls-5" d="M291.47,396.49c-2.44,3.9-4.6,7.42-6.86,10.88a2.59,2.59,0,0,1-1.78,1c-2.64.11-5.29,0-8.43,0,1.85-4,3.5-7.69,5.27-11.29.2-.4,1.1-.62,1.68-.63C284.58,396.46,287.81,396.49,291.47,396.49Z" transform="translate(-173.39 -321.32)"/><path class="cls-1" d="M297.48,340.12c.92,3.88,1.82,7.73,2.77,11.73H288.53c-.25-3.89-.5-7.73-.75-11.73Z" transform="translate(-173.39 -321.32)"/><path class="cls-6" d="M325,380.33l-.85-.38Z" transform="translate(-173.39 -321.32)"/><path class="cls-7" d="M281.74,378.67a1.44,1.44,0,0,1-.27.05s0-.06-.06-.1Z" transform="translate(-173.39 -321.32)"/><text class="cls-8" transform="translate(0 144.64) scale(0.93 1)">GMF</text><text class="cls-9" transform="translate(87.09 144.88)">Employees Club</text><path class="cls-4" d="M289.88,380.14" transform="translate(-173.39 -321.32)"/><path class="cls-10" d="M343.84,374.44a55.17,55.17,0,0,1-13,5.32c-6.23,1.39-19.51.57-25.38.57a123.38,123.38,0,0,1-24.8-2.64L267.31,390h-3.24l7.58-14.58c-1.71-.5-2.65-.83-2.65-.83l2.67-.92-7.61-13.88,3.34-.07,13.17,12.08A136.43,136.43,0,0,1,306,369.3s16.22-.6,24.33.51A35.63,35.63,0,0,1,343.84,374.44Z" transform="translate(-173.39 -321.32)"/></svg>